<mxfile host="app.diagrams.net" modified="2024-07-22T02:12:02.197Z" agent="Mozilla/5.0 (Macintosh; Intel Mac OS X 10_15_7) AppleWebKit/537.36 (KHTML, like Gecko) Chrome/126.0.0.0 Safari/537.36" etag="L42jcf-_8VQ2m3vU2X3J" version="24.7.1" type="github">
  <diagram name="第 1 页" id="Q5z5r6t-nIowfkE742d3">
    <mxGraphModel dx="7997" dy="2636" grid="1" gridSize="10" guides="1" tooltips="1" connect="1" arrows="1" fold="1" page="1" pageScale="1" pageWidth="827" pageHeight="1169" math="0" shadow="0">
      <root>
        <mxCell id="0" />
        <mxCell id="1" parent="0" />
        <mxCell id="zqPxDyjhuks0Axc2uc-e-1" value="&lt;font style=&quot;font-size: 48px;&quot;&gt;MOD首页场景&lt;/font&gt;" style="text;strokeColor=none;fillColor=none;align=left;verticalAlign=middle;spacingLeft=4;spacingRight=4;overflow=hidden;points=[[0,0.5],[1,0.5]];portConstraint=eastwest;rotatable=0;whiteSpace=wrap;html=1;" parent="1" vertex="1">
          <mxGeometry x="-767.5" y="1277" width="345" height="110" as="geometry" />
        </mxCell>
        <mxCell id="zqPxDyjhuks0Axc2uc-e-2" value="&lt;font style=&quot;font-size: 36px;&quot;&gt;业务视角&lt;/font&gt;" style="text;html=1;align=center;verticalAlign=middle;resizable=0;points=[];autosize=1;strokeColor=none;fillColor=none;" parent="1" vertex="1">
          <mxGeometry x="1148" y="1520" width="170" height="60" as="geometry" />
        </mxCell>
        <mxCell id="zqPxDyjhuks0Axc2uc-e-3" style="edgeStyle=orthogonalEdgeStyle;rounded=0;orthogonalLoop=1;jettySize=auto;html=1;exitX=0.5;exitY=1;exitDx=0;exitDy=0;" parent="1" source="zqPxDyjhuks0Axc2uc-e-8" target="zqPxDyjhuks0Axc2uc-e-55" edge="1">
          <mxGeometry relative="1" as="geometry" />
        </mxCell>
        <mxCell id="zqPxDyjhuks0Axc2uc-e-6" style="edgeStyle=orthogonalEdgeStyle;rounded=0;orthogonalLoop=1;jettySize=auto;html=1;exitX=0.5;exitY=1;exitDx=0;exitDy=0;" parent="1" source="zqPxDyjhuks0Axc2uc-e-8" target="zqPxDyjhuks0Axc2uc-e-16" edge="1">
          <mxGeometry relative="1" as="geometry" />
        </mxCell>
        <mxCell id="zqPxDyjhuks0Axc2uc-e-7" style="edgeStyle=orthogonalEdgeStyle;rounded=0;orthogonalLoop=1;jettySize=auto;html=1;exitX=0.5;exitY=1;exitDx=0;exitDy=0;entryX=0.5;entryY=0;entryDx=0;entryDy=0;" parent="1" source="zqPxDyjhuks0Axc2uc-e-8" target="zqPxDyjhuks0Axc2uc-e-15" edge="1">
          <mxGeometry relative="1" as="geometry" />
        </mxCell>
        <mxCell id="zqPxDyjhuks0Axc2uc-e-8" value="MOP&lt;span style=&quot;background-color: initial;&quot;&gt;-BFF&lt;/span&gt;" style="rounded=1;whiteSpace=wrap;html=1;fillColor=#60a917;strokeColor=#2D7600;fontColor=#ffffff;" parent="1" vertex="1">
          <mxGeometry x="1575" y="1720" width="120" height="60" as="geometry" />
        </mxCell>
        <mxCell id="zqPxDyjhuks0Axc2uc-e-9" style="edgeStyle=orthogonalEdgeStyle;rounded=0;orthogonalLoop=1;jettySize=auto;html=1;exitX=0.5;exitY=1;exitDx=0;exitDy=0;" parent="1" source="zqPxDyjhuks0Axc2uc-e-11" target="zqPxDyjhuks0Axc2uc-e-21" edge="1">
          <mxGeometry relative="1" as="geometry" />
        </mxCell>
        <mxCell id="zqPxDyjhuks0Axc2uc-e-10" style="edgeStyle=orthogonalEdgeStyle;rounded=0;orthogonalLoop=1;jettySize=auto;html=1;exitX=0.5;exitY=1;exitDx=0;exitDy=0;entryX=0.5;entryY=0;entryDx=0;entryDy=0;" parent="1" source="zqPxDyjhuks0Axc2uc-e-11" target="zqPxDyjhuks0Axc2uc-e-8" edge="1">
          <mxGeometry relative="1" as="geometry" />
        </mxCell>
        <mxCell id="zqPxDyjhuks0Axc2uc-e-11" value="KONG" style="rounded=1;whiteSpace=wrap;html=1;fillColor=#dae8fc;strokeColor=#6c8ebf;" parent="1" vertex="1">
          <mxGeometry x="1748" y="1610" width="120" height="60" as="geometry" />
        </mxCell>
        <mxCell id="zqPxDyjhuks0Axc2uc-e-12" value="" style="edgeStyle=orthogonalEdgeStyle;rounded=0;orthogonalLoop=1;jettySize=auto;html=1;" parent="1" source="zqPxDyjhuks0Axc2uc-e-13" target="zqPxDyjhuks0Axc2uc-e-11" edge="1">
          <mxGeometry relative="1" as="geometry" />
        </mxCell>
        <mxCell id="zqPxDyjhuks0Axc2uc-e-13" value="APP" style="rounded=1;whiteSpace=wrap;html=1;fillColor=#f5f5f5;strokeColor=#666666;fontColor=#333333;" parent="1" vertex="1">
          <mxGeometry x="1748" y="1510" width="120" height="60" as="geometry" />
        </mxCell>
        <mxCell id="zqPxDyjhuks0Axc2uc-e-15" value="门店数据" style="rounded=1;whiteSpace=wrap;html=1;fillColor=#60a917;strokeColor=#2D7600;fontColor=#ffffff;" parent="1" vertex="1">
          <mxGeometry x="1417" y="1930" width="120" height="60" as="geometry" />
        </mxCell>
        <mxCell id="zqPxDyjhuks0Axc2uc-e-16" value="菜单类目数据主菜单" style="rounded=1;whiteSpace=wrap;html=1;fillColor=#60a917;strokeColor=#2D7600;fontColor=#ffffff;" parent="1" vertex="1">
          <mxGeometry x="1575" y="1930" width="120" height="60" as="geometry" />
        </mxCell>
        <mxCell id="zqPxDyjhuks0Axc2uc-e-19" value="默认支付方式" style="rounded=1;whiteSpace=wrap;html=1;fillColor=#008a00;strokeColor=#005700;fontColor=#ffffff;" parent="1" vertex="1">
          <mxGeometry x="1927" y="1929" width="120" height="60" as="geometry" />
        </mxCell>
        <mxCell id="zqPxDyjhuks0Axc2uc-e-20" style="edgeStyle=orthogonalEdgeStyle;rounded=0;orthogonalLoop=1;jettySize=auto;html=1;exitX=0.5;exitY=1;exitDx=0;exitDy=0;entryX=0.5;entryY=0;entryDx=0;entryDy=0;" parent="1" source="zqPxDyjhuks0Axc2uc-e-21" target="zqPxDyjhuks0Axc2uc-e-19" edge="1">
          <mxGeometry relative="1" as="geometry" />
        </mxCell>
        <mxCell id="zqPxDyjhuks0Axc2uc-e-21" value="Common-BFF" style="rounded=1;whiteSpace=wrap;html=1;fillColor=#008a00;strokeColor=#005700;fontColor=#ffffff;" parent="1" vertex="1">
          <mxGeometry x="1927" y="1720" width="120" height="60" as="geometry" />
        </mxCell>
        <mxCell id="zqPxDyjhuks0Axc2uc-e-55" value="购物车数据" style="rounded=1;whiteSpace=wrap;html=1;fillColor=#60a917;strokeColor=#2D7600;fontColor=#ffffff;" parent="1" vertex="1">
          <mxGeometry x="1735" y="1929" width="120" height="60" as="geometry" />
        </mxCell>
        <mxCell id="zqPxDyjhuks0Axc2uc-e-71" value="&lt;font style=&quot;font-size: 36px;&quot;&gt;系统视角&lt;/font&gt;" style="text;html=1;align=center;verticalAlign=middle;resizable=0;points=[];autosize=1;strokeColor=none;fillColor=none;" parent="1" vertex="1">
          <mxGeometry x="-692" y="1500" width="170" height="60" as="geometry" />
        </mxCell>
        <mxCell id="zqPxDyjhuks0Axc2uc-e-73" style="edgeStyle=orthogonalEdgeStyle;rounded=0;orthogonalLoop=1;jettySize=auto;html=1;exitX=0.5;exitY=1;exitDx=0;exitDy=0;entryX=0.5;entryY=0;entryDx=0;entryDy=0;" parent="1" source="zqPxDyjhuks0Axc2uc-e-80" target="zqPxDyjhuks0Axc2uc-e-93" edge="1">
          <mxGeometry relative="1" as="geometry" />
        </mxCell>
        <mxCell id="zqPxDyjhuks0Axc2uc-e-77" style="edgeStyle=orthogonalEdgeStyle;rounded=0;orthogonalLoop=1;jettySize=auto;html=1;exitX=0.5;exitY=1;exitDx=0;exitDy=0;entryX=0.5;entryY=0;entryDx=0;entryDy=0;" parent="1" source="zqPxDyjhuks0Axc2uc-e-80" target="zqPxDyjhuks0Axc2uc-e-95" edge="1">
          <mxGeometry relative="1" as="geometry" />
        </mxCell>
        <mxCell id="zqPxDyjhuks0Axc2uc-e-78" style="edgeStyle=orthogonalEdgeStyle;rounded=0;orthogonalLoop=1;jettySize=auto;html=1;exitX=0.5;exitY=1;exitDx=0;exitDy=0;entryX=0.5;entryY=0;entryDx=0;entryDy=0;" parent="1" source="zqPxDyjhuks0Axc2uc-e-80" target="zqPxDyjhuks0Axc2uc-e-96" edge="1">
          <mxGeometry relative="1" as="geometry" />
        </mxCell>
        <mxCell id="zqPxDyjhuks0Axc2uc-e-79" style="edgeStyle=orthogonalEdgeStyle;rounded=0;orthogonalLoop=1;jettySize=auto;html=1;exitX=0.5;exitY=1;exitDx=0;exitDy=0;" parent="1" source="zqPxDyjhuks0Axc2uc-e-80" target="zqPxDyjhuks0Axc2uc-e-97" edge="1">
          <mxGeometry relative="1" as="geometry" />
        </mxCell>
        <mxCell id="zqPxDyjhuks0Axc2uc-e-80" value="MOP&lt;span style=&quot;background-color: initial;&quot;&gt;-BFF&lt;/span&gt;" style="rounded=1;whiteSpace=wrap;html=1;fillColor=#60a917;strokeColor=#2D7600;fontColor=#ffffff;" parent="1" vertex="1">
          <mxGeometry x="-254" y="1720" width="120" height="60" as="geometry" />
        </mxCell>
        <mxCell id="zqPxDyjhuks0Axc2uc-e-81" style="edgeStyle=orthogonalEdgeStyle;rounded=0;orthogonalLoop=1;jettySize=auto;html=1;exitX=0.5;exitY=1;exitDx=0;exitDy=0;" parent="1" source="zqPxDyjhuks0Axc2uc-e-83" target="zqPxDyjhuks0Axc2uc-e-88" edge="1">
          <mxGeometry relative="1" as="geometry" />
        </mxCell>
        <mxCell id="zqPxDyjhuks0Axc2uc-e-82" style="edgeStyle=orthogonalEdgeStyle;rounded=0;orthogonalLoop=1;jettySize=auto;html=1;exitX=0.5;exitY=1;exitDx=0;exitDy=0;entryX=0.5;entryY=0;entryDx=0;entryDy=0;" parent="1" source="zqPxDyjhuks0Axc2uc-e-83" target="zqPxDyjhuks0Axc2uc-e-80" edge="1">
          <mxGeometry relative="1" as="geometry" />
        </mxCell>
        <mxCell id="zqPxDyjhuks0Axc2uc-e-83" value="KONG" style="rounded=1;whiteSpace=wrap;html=1;fillColor=#dae8fc;strokeColor=#6c8ebf;" parent="1" vertex="1">
          <mxGeometry y="1540" width="120" height="60" as="geometry" />
        </mxCell>
        <mxCell id="zqPxDyjhuks0Axc2uc-e-84" value="" style="edgeStyle=orthogonalEdgeStyle;rounded=0;orthogonalLoop=1;jettySize=auto;html=1;" parent="1" source="zqPxDyjhuks0Axc2uc-e-85" target="zqPxDyjhuks0Axc2uc-e-83" edge="1">
          <mxGeometry relative="1" as="geometry" />
        </mxCell>
        <mxCell id="zqPxDyjhuks0Axc2uc-e-85" value="APP" style="rounded=1;whiteSpace=wrap;html=1;fillColor=#f5f5f5;strokeColor=#666666;fontColor=#333333;" parent="1" vertex="1">
          <mxGeometry y="1440" width="120" height="60" as="geometry" />
        </mxCell>
        <mxCell id="zqPxDyjhuks0Axc2uc-e-86" value="峰值8K/min" style="text;strokeColor=none;fillColor=none;align=left;verticalAlign=middle;spacingLeft=4;spacingRight=4;overflow=hidden;points=[[0,0.5],[1,0.5]];portConstraint=eastwest;rotatable=0;whiteSpace=wrap;html=1;" parent="1" vertex="1">
          <mxGeometry x="-110.5" y="1515" width="80" height="30" as="geometry" />
        </mxCell>
        <mxCell id="zqPxDyjhuks0Axc2uc-e-87" style="edgeStyle=orthogonalEdgeStyle;rounded=0;orthogonalLoop=1;jettySize=auto;html=1;exitX=0.5;exitY=1;exitDx=0;exitDy=0;entryX=0.5;entryY=0;entryDx=0;entryDy=0;" parent="1" source="zqPxDyjhuks0Axc2uc-e-88" target="J9MeXri5vQuQtAhNNJaB-28" edge="1">
          <mxGeometry relative="1" as="geometry">
            <mxPoint x="260.5" y="1930" as="targetPoint" />
          </mxGeometry>
        </mxCell>
        <mxCell id="zqPxDyjhuks0Axc2uc-e-88" value="Common-BFF" style="rounded=1;whiteSpace=wrap;html=1;fillColor=#008a00;strokeColor=#005700;fontColor=#ffffff;" parent="1" vertex="1">
          <mxGeometry x="281" y="1720" width="120" height="60" as="geometry" />
        </mxCell>
        <mxCell id="zqPxDyjhuks0Axc2uc-e-93" value="Provision" style="rounded=1;whiteSpace=wrap;html=1;fillColor=#ffe6cc;strokeColor=#d79b00;" parent="1" vertex="1">
          <mxGeometry x="-545.5" y="1931" width="120" height="60" as="geometry" />
        </mxCell>
        <mxCell id="zqPxDyjhuks0Axc2uc-e-95" value="PC" style="rounded=1;whiteSpace=wrap;html=1;fillColor=#e51400;strokeColor=#B20000;fontColor=#ffffff;" parent="1" vertex="1">
          <mxGeometry x="-395" y="1931" width="120" height="60" as="geometry" />
        </mxCell>
        <mxCell id="zqPxDyjhuks0Axc2uc-e-96" value="OMS" style="rounded=1;whiteSpace=wrap;html=1;fillColor=#e3c800;strokeColor=#B09500;fontColor=#000000;" parent="1" vertex="1">
          <mxGeometry x="-253.5" y="1931" width="120" height="60" as="geometry" />
        </mxCell>
        <mxCell id="zqPxDyjhuks0Axc2uc-e-97" value="Star Engine" style="rounded=1;whiteSpace=wrap;html=1;fillColor=#a0522d;strokeColor=#6D1F00;fontColor=#ffffff;" parent="1" vertex="1">
          <mxGeometry x="-110.5" y="1931" width="120" height="60" as="geometry" />
        </mxCell>
        <mxCell id="zqPxDyjhuks0Axc2uc-e-102" value="&lt;font style=&quot;font-size: 18px;&quot;&gt;1:7&lt;/font&gt;" style="text;html=1;align=center;verticalAlign=middle;resizable=0;points=[];autosize=1;strokeColor=none;fillColor=none;" parent="1" vertex="1">
          <mxGeometry x="-483" y="1863" width="50" height="40" as="geometry" />
        </mxCell>
        <mxCell id="zqPxDyjhuks0Axc2uc-e-103" value="&lt;font style=&quot;font-size: 18px;&quot;&gt;1:2&lt;/font&gt;" style="text;html=1;align=center;verticalAlign=middle;resizable=0;points=[];autosize=1;strokeColor=none;fillColor=none;" parent="1" vertex="1">
          <mxGeometry x="-333" y="1863" width="50" height="40" as="geometry" />
        </mxCell>
        <mxCell id="zqPxDyjhuks0Axc2uc-e-104" value="&lt;font style=&quot;font-size: 18px;&quot;&gt;1:2&lt;/font&gt;" style="text;html=1;align=center;verticalAlign=middle;resizable=0;points=[];autosize=1;strokeColor=none;fillColor=none;" parent="1" vertex="1">
          <mxGeometry x="-193" y="1863" width="50" height="40" as="geometry" />
        </mxCell>
        <mxCell id="zqPxDyjhuks0Axc2uc-e-105" value="&lt;font style=&quot;font-size: 18px;&quot;&gt;1:1&lt;/font&gt;" style="text;html=1;align=center;verticalAlign=middle;resizable=0;points=[];autosize=1;strokeColor=none;fillColor=none;" parent="1" vertex="1">
          <mxGeometry x="-53" y="1861" width="50" height="40" as="geometry" />
        </mxCell>
        <mxCell id="zqPxDyjhuks0Axc2uc-e-106" value="&lt;font style=&quot;font-size: 18px;&quot;&gt;1:1&lt;/font&gt;" style="text;html=1;align=center;verticalAlign=middle;resizable=0;points=[];autosize=1;strokeColor=none;fillColor=none;" parent="1" vertex="1">
          <mxGeometry x="344" y="1860" width="50" height="40" as="geometry" />
        </mxCell>
        <mxCell id="zqPxDyjhuks0Axc2uc-e-107" value="&lt;font style=&quot;font-size: 36px;&quot;&gt;接口视角&lt;/font&gt;" style="text;html=1;align=center;verticalAlign=middle;resizable=0;points=[];autosize=1;strokeColor=none;fillColor=none;" parent="1" vertex="1">
          <mxGeometry x="-680" y="2100" width="170" height="60" as="geometry" />
        </mxCell>
        <mxCell id="0m1JnloAispsMIojD9PW-1" value="&lt;font style=&quot;font-size: 18px;&quot;&gt;1:1&lt;/font&gt;" style="text;html=1;align=center;verticalAlign=middle;resizable=0;points=[];autosize=1;strokeColor=none;fillColor=none;" parent="1" vertex="1">
          <mxGeometry x="-194" y="1660" width="50" height="40" as="geometry" />
        </mxCell>
        <mxCell id="0m1JnloAispsMIojD9PW-2" value="&lt;font style=&quot;font-size: 18px;&quot;&gt;1:1&lt;/font&gt;" style="text;html=1;align=center;verticalAlign=middle;resizable=0;points=[];autosize=1;strokeColor=none;fillColor=none;" parent="1" vertex="1">
          <mxGeometry x="340" y="1660" width="50" height="40" as="geometry" />
        </mxCell>
        <mxCell id="RRxXi1wo7y_AlvlHw12m-1" value="峰值8K/min" style="text;strokeColor=none;fillColor=none;align=left;verticalAlign=middle;spacingLeft=4;spacingRight=4;overflow=hidden;points=[[0,0.5],[1,0.5]];portConstraint=eastwest;rotatable=0;whiteSpace=wrap;html=1;" parent="1" vertex="1">
          <mxGeometry x="1581" y="1535" width="80" height="30" as="geometry" />
        </mxCell>
        <mxCell id="OONytPEMxXRGxY52DsGb-1" value="门店数据&lt;div&gt;/mod/v4/store/list&lt;/div&gt;" style="whiteSpace=wrap;html=1;rounded=1;arcSize=50;align=center;verticalAlign=middle;strokeWidth=1;autosize=0;spacing=4;treeFolding=1;treeMoving=1;newEdgeStyle={&quot;edgeStyle&quot;:&quot;entityRelationEdgeStyle&quot;,&quot;startArrow&quot;:&quot;none&quot;,&quot;endArrow&quot;:&quot;none&quot;,&quot;segment&quot;:10,&quot;curved&quot;:1,&quot;sourcePerimeterSpacing&quot;:0,&quot;targetPerimeterSpacing&quot;:0};strokeColor=#2D7600;fontFamily=Helvetica;fontSize=12;fontColor=#ffffff;fillColor=#60a917;resizable=1;" parent="1" vertex="1">
          <mxGeometry x="-767.5" y="2687" width="120" height="60" as="geometry" />
        </mxCell>
        <mxCell id="OONytPEMxXRGxY52DsGb-26" value="" style="edgeStyle=entityRelationEdgeStyle;rounded=0;orthogonalLoop=1;jettySize=auto;html=1;startArrow=none;endArrow=none;segment=10;curved=1;sourcePerimeterSpacing=0;targetPerimeterSpacing=0;fontFamily=Helvetica;fontSize=12;fontColor=default;exitX=1;exitY=0.5;exitDx=0;exitDy=0;" parent="1" source="J9MeXri5vQuQtAhNNJaB-18" target="OONytPEMxXRGxY52DsGb-18" edge="1">
          <mxGeometry relative="1" as="geometry">
            <mxPoint x="-376" y="2543" as="sourcePoint" />
          </mxGeometry>
        </mxCell>
        <mxCell id="OONytPEMxXRGxY52DsGb-12" value="Provision" style="whiteSpace=wrap;html=1;rounded=1;arcSize=50;align=center;verticalAlign=middle;strokeWidth=1;autosize=0;spacing=4;treeFolding=1;treeMoving=1;newEdgeStyle={&quot;edgeStyle&quot;:&quot;entityRelationEdgeStyle&quot;,&quot;startArrow&quot;:&quot;none&quot;,&quot;endArrow&quot;:&quot;none&quot;,&quot;segment&quot;:10,&quot;curved&quot;:1,&quot;sourcePerimeterSpacing&quot;:0,&quot;targetPerimeterSpacing&quot;:0};strokeColor=#d79b00;fontFamily=Helvetica;fontSize=12;fontColor=default;fillColor=#ffe6cc;resizable=1;" parent="1" vertex="1">
          <mxGeometry x="-515" y="2850" width="120" height="60" as="geometry" />
        </mxCell>
        <mxCell id="OONytPEMxXRGxY52DsGb-18" value="&lt;div&gt;/assortment/store/preferenceList&lt;br&gt;&lt;/div&gt;" style="text;html=1;align=center;verticalAlign=middle;whiteSpace=wrap;rounded=0;fontFamily=Helvetica;fontSize=12;fontColor=default;autosize=1;" parent="1" vertex="1">
          <mxGeometry x="-339.5" y="2545" width="200" height="30" as="geometry" />
        </mxCell>
        <mxCell id="OONytPEMxXRGxY52DsGb-28" value="" style="edgeStyle=entityRelationEdgeStyle;rounded=0;orthogonalLoop=1;jettySize=auto;html=1;startArrow=none;endArrow=none;segment=10;curved=1;sourcePerimeterSpacing=0;targetPerimeterSpacing=0;fontFamily=Helvetica;fontSize=12;fontColor=default;entryX=0;entryY=0.5;entryDx=0;entryDy=0;exitX=0.995;exitY=0.386;exitDx=0;exitDy=0;exitPerimeter=0;" parent="1" source="OONytPEMxXRGxY52DsGb-12" target="aGhoT53BZnZ24auxcAZ5-1" edge="1">
          <mxGeometry relative="1" as="geometry">
            <mxPoint x="-385" y="2890" as="sourcePoint" />
            <mxPoint x="-330" y="2915" as="targetPoint" />
            <Array as="points">
              <mxPoint x="-395" y="2870" />
              <mxPoint x="-340" y="2850" />
            </Array>
          </mxGeometry>
        </mxCell>
        <mxCell id="OONytPEMxXRGxY52DsGb-32" style="edgeStyle=orthogonalEdgeStyle;rounded=0;orthogonalLoop=1;jettySize=auto;html=1;entryX=0;entryY=0.5;entryDx=0;entryDy=0;exitX=1;exitY=0.5;exitDx=0;exitDy=0;" parent="1" source="OONytPEMxXRGxY52DsGb-1" target="J9MeXri5vQuQtAhNNJaB-18" edge="1">
          <mxGeometry relative="1" as="geometry">
            <mxPoint x="-627.5" y="2737" as="sourcePoint" />
            <mxPoint x="-515.5000000000001" y="2827" as="targetPoint" />
          </mxGeometry>
        </mxCell>
        <mxCell id="OONytPEMxXRGxY52DsGb-161" value="&lt;font color=&quot;#000000&quot; style=&quot;font-size: 30px;&quot;&gt;1:1&lt;/font&gt;" style="edgeLabel;html=1;align=center;verticalAlign=middle;resizable=0;points=[];rounded=1;strokeColor=#005700;fontFamily=Helvetica;fontSize=12;fontColor=#ffffff;labelBackgroundColor=none;fillColor=#008a00;gradientColor=none;" parent="OONytPEMxXRGxY52DsGb-32" vertex="1" connectable="0">
          <mxGeometry x="0.688" y="4" relative="1" as="geometry">
            <mxPoint y="-16" as="offset" />
          </mxGeometry>
        </mxCell>
        <mxCell id="OONytPEMxXRGxY52DsGb-162" value="" style="edgeLabel;html=1;align=center;verticalAlign=middle;resizable=0;points=[];rounded=1;strokeColor=#005700;fontFamily=Helvetica;fontSize=12;fontColor=#ffffff;labelBackgroundColor=none;fillColor=#008a00;gradientColor=none;" parent="OONytPEMxXRGxY52DsGb-32" vertex="1" connectable="0">
          <mxGeometry x="0.688" y="4" relative="1" as="geometry">
            <mxPoint x="6" y="97" as="offset" />
          </mxGeometry>
        </mxCell>
        <mxCell id="OONytPEMxXRGxY52DsGb-33" style="edgeStyle=orthogonalEdgeStyle;rounded=0;orthogonalLoop=1;jettySize=auto;html=1;entryX=0;entryY=0.5;entryDx=0;entryDy=0;exitX=1;exitY=0.5;exitDx=0;exitDy=0;" parent="1" source="OONytPEMxXRGxY52DsGb-1" target="OONytPEMxXRGxY52DsGb-12" edge="1">
          <mxGeometry relative="1" as="geometry">
            <mxPoint x="-617.5" y="2747" as="sourcePoint" />
            <mxPoint x="-485.5" y="2637" as="targetPoint" />
          </mxGeometry>
        </mxCell>
        <mxCell id="J9MeXri5vQuQtAhNNJaB-22" value="&lt;span style=&quot;font-size: 30px; background-color: rgb(251, 251, 251);&quot;&gt;1:1&lt;/span&gt;" style="edgeLabel;html=1;align=center;verticalAlign=middle;resizable=0;points=[];" parent="OONytPEMxXRGxY52DsGb-33" vertex="1" connectable="0">
          <mxGeometry x="0.5739" y="-3" relative="1" as="geometry">
            <mxPoint x="18" y="-24" as="offset" />
          </mxGeometry>
        </mxCell>
        <mxCell id="OONytPEMxXRGxY52DsGb-61" value="" style="edgeStyle=entityRelationEdgeStyle;rounded=0;orthogonalLoop=1;jettySize=auto;html=1;startArrow=none;endArrow=none;segment=10;curved=1;sourcePerimeterSpacing=0;targetPerimeterSpacing=0;fontFamily=Helvetica;fontSize=12;fontColor=default;shadow=1;" parent="1" source="OONytPEMxXRGxY52DsGb-34" target="OONytPEMxXRGxY52DsGb-44" edge="1">
          <mxGeometry relative="1" as="geometry" />
        </mxCell>
        <mxCell id="OONytPEMxXRGxY52DsGb-34" value="PC" style="whiteSpace=wrap;html=1;rounded=1;arcSize=50;align=center;verticalAlign=middle;strokeWidth=1;autosize=0;spacing=4;treeFolding=1;treeMoving=1;newEdgeStyle={&quot;edgeStyle&quot;:&quot;entityRelationEdgeStyle&quot;,&quot;startArrow&quot;:&quot;none&quot;,&quot;endArrow&quot;:&quot;none&quot;,&quot;segment&quot;:10,&quot;curved&quot;:1,&quot;sourcePerimeterSpacing&quot;:0,&quot;targetPerimeterSpacing&quot;:0};strokeColor=#B20000;fontFamily=Helvetica;fontSize=12;fontColor=#ffffff;fillColor=#e51400;shadow=1;" parent="1" vertex="1">
          <mxGeometry x="575" y="2465" width="120" height="60" as="geometry" />
        </mxCell>
        <mxCell id="OONytPEMxXRGxY52DsGb-57" value="" style="edgeStyle=entityRelationEdgeStyle;rounded=0;orthogonalLoop=1;jettySize=auto;html=1;startArrow=none;endArrow=none;segment=10;curved=1;sourcePerimeterSpacing=0;targetPerimeterSpacing=0;fontFamily=Helvetica;fontSize=12;fontColor=default;shadow=1;" parent="1" source="OONytPEMxXRGxY52DsGb-38" target="aGhoT53BZnZ24auxcAZ5-12" edge="1">
          <mxGeometry relative="1" as="geometry">
            <mxPoint x="900" y="2706" as="targetPoint" />
          </mxGeometry>
        </mxCell>
        <mxCell id="OONytPEMxXRGxY52DsGb-38" value="Provision" style="whiteSpace=wrap;html=1;rounded=1;arcSize=50;align=center;verticalAlign=middle;strokeWidth=1;autosize=0;spacing=4;treeFolding=1;treeMoving=1;newEdgeStyle={&quot;edgeStyle&quot;:&quot;entityRelationEdgeStyle&quot;,&quot;startArrow&quot;:&quot;none&quot;,&quot;endArrow&quot;:&quot;none&quot;,&quot;segment&quot;:10,&quot;curved&quot;:1,&quot;sourcePerimeterSpacing&quot;:0,&quot;targetPerimeterSpacing&quot;:0};strokeColor=#d79b00;fontFamily=Helvetica;fontSize=12;fontColor=default;fillColor=#ffe6cc;shadow=1;" parent="1" vertex="1">
          <mxGeometry x="575" y="2675" width="120" height="60" as="geometry" />
        </mxCell>
        <mxCell id="OONytPEMxXRGxY52DsGb-39" value="菜单类目数据主菜单&lt;div&gt;/mod/v3/menu/detail&lt;br&gt;&lt;/div&gt;" style="whiteSpace=wrap;html=1;rounded=1;arcSize=50;align=center;verticalAlign=middle;strokeWidth=1;autosize=0;spacing=4;treeFolding=1;treeMoving=1;newEdgeStyle={&quot;edgeStyle&quot;:&quot;entityRelationEdgeStyle&quot;,&quot;startArrow&quot;:&quot;none&quot;,&quot;endArrow&quot;:&quot;none&quot;,&quot;segment&quot;:10,&quot;curved&quot;:1,&quot;sourcePerimeterSpacing&quot;:0,&quot;targetPerimeterSpacing&quot;:0};strokeColor=#2D7600;fontFamily=Helvetica;fontSize=12;fontColor=#ffffff;fillColor=#60a917;shadow=1;" parent="1" vertex="1">
          <mxGeometry x="350" y="2675" width="120" height="60" as="geometry" />
        </mxCell>
        <mxCell id="OONytPEMxXRGxY52DsGb-56" value="" style="edgeStyle=entityRelationEdgeStyle;rounded=0;orthogonalLoop=1;jettySize=auto;html=1;startArrow=none;endArrow=none;segment=10;curved=1;sourcePerimeterSpacing=0;targetPerimeterSpacing=0;fontFamily=Helvetica;fontSize=12;fontColor=default;shadow=1;" parent="1" source="OONytPEMxXRGxY52DsGb-40" target="OONytPEMxXRGxY52DsGb-49" edge="1">
          <mxGeometry relative="1" as="geometry" />
        </mxCell>
        <mxCell id="OONytPEMxXRGxY52DsGb-40" value="Game Service" style="whiteSpace=wrap;html=1;rounded=1;arcSize=50;align=center;verticalAlign=middle;strokeWidth=1;autosize=0;spacing=4;treeFolding=1;treeMoving=1;newEdgeStyle={&quot;edgeStyle&quot;:&quot;entityRelationEdgeStyle&quot;,&quot;startArrow&quot;:&quot;none&quot;,&quot;endArrow&quot;:&quot;none&quot;,&quot;segment&quot;:10,&quot;curved&quot;:1,&quot;sourcePerimeterSpacing&quot;:0,&quot;targetPerimeterSpacing&quot;:0};strokeColor=#b85450;fontFamily=Helvetica;fontSize=12;fillColor=#f8cecc;shadow=1;" parent="1" vertex="1">
          <mxGeometry x="575" y="2883" width="120" height="60" as="geometry" />
        </mxCell>
        <mxCell id="OONytPEMxXRGxY52DsGb-42" value="&lt;div&gt;/api/rule/getMenu&lt;br&gt;&lt;/div&gt;" style="text;html=1;align=center;verticalAlign=middle;whiteSpace=wrap;rounded=0;fontFamily=Helvetica;fontSize=12;fontColor=default;autosize=1;shadow=1;" parent="1" vertex="1">
          <mxGeometry x="785" y="2440" width="120" height="30" as="geometry" />
        </mxCell>
        <mxCell id="OONytPEMxXRGxY52DsGb-44" value="&lt;div&gt;/api/rule/menu/srkit&lt;br&gt;&lt;/div&gt;" style="text;html=1;align=center;verticalAlign=middle;whiteSpace=wrap;rounded=0;fontFamily=Helvetica;fontSize=12;fontColor=default;autosize=1;shadow=1;" parent="1" vertex="1">
          <mxGeometry x="788" y="2495" width="120" height="30" as="geometry" />
        </mxCell>
        <mxCell id="OONytPEMxXRGxY52DsGb-49" value="&lt;div&gt;/campaign-adapter/common/isJoin&lt;br&gt;&lt;/div&gt;" style="text;html=1;align=center;verticalAlign=middle;whiteSpace=wrap;rounded=0;fontFamily=Helvetica;fontSize=12;fontColor=default;autosize=1;shadow=1;" parent="1" vertex="1">
          <mxGeometry x="785" y="2898" width="210" height="30" as="geometry" />
        </mxCell>
        <mxCell id="OONytPEMxXRGxY52DsGb-51" style="edgeStyle=orthogonalEdgeStyle;rounded=0;orthogonalLoop=1;jettySize=auto;html=1;exitX=1;exitY=0.5;exitDx=0;exitDy=0;entryX=0;entryY=0.5;entryDx=0;entryDy=0;shadow=1;" parent="1" source="OONytPEMxXRGxY52DsGb-39" target="OONytPEMxXRGxY52DsGb-38" edge="1">
          <mxGeometry relative="1" as="geometry">
            <mxPoint x="595" y="2675" as="sourcePoint" />
            <mxPoint x="455" y="2765" as="targetPoint" />
          </mxGeometry>
        </mxCell>
        <mxCell id="J9MeXri5vQuQtAhNNJaB-20" value="&lt;span style=&quot;font-size: 25px; background-color: rgb(251, 251, 251);&quot;&gt;1:3&lt;/span&gt;" style="edgeLabel;html=1;align=center;verticalAlign=middle;resizable=0;points=[];shadow=1;" parent="OONytPEMxXRGxY52DsGb-51" vertex="1" connectable="0">
          <mxGeometry x="0.3759" y="2" relative="1" as="geometry">
            <mxPoint x="1" y="-17" as="offset" />
          </mxGeometry>
        </mxCell>
        <mxCell id="OONytPEMxXRGxY52DsGb-52" style="edgeStyle=orthogonalEdgeStyle;rounded=0;orthogonalLoop=1;jettySize=auto;html=1;exitX=1;exitY=0.5;exitDx=0;exitDy=0;entryX=0;entryY=0.5;entryDx=0;entryDy=0;shadow=1;" parent="1" source="OONytPEMxXRGxY52DsGb-39" target="OONytPEMxXRGxY52DsGb-34" edge="1">
          <mxGeometry relative="1" as="geometry">
            <mxPoint x="480" y="2715" as="sourcePoint" />
            <mxPoint x="585" y="2715" as="targetPoint" />
          </mxGeometry>
        </mxCell>
        <mxCell id="OONytPEMxXRGxY52DsGb-163" value="&lt;font color=&quot;#000000&quot; style=&quot;font-size: 25px;&quot;&gt;1:2&lt;/font&gt;" style="edgeLabel;html=1;align=center;verticalAlign=middle;resizable=0;points=[];rounded=1;strokeColor=#005700;fontFamily=Helvetica;fontSize=25;fontColor=#ffffff;labelBackgroundColor=none;fillColor=#008a00;gradientColor=none;shadow=1;" parent="OONytPEMxXRGxY52DsGb-52" vertex="1" connectable="0">
          <mxGeometry x="0.6092" y="-3" relative="1" as="geometry">
            <mxPoint x="5" y="-20" as="offset" />
          </mxGeometry>
        </mxCell>
        <mxCell id="OONytPEMxXRGxY52DsGb-164" value="" style="edgeLabel;html=1;align=center;verticalAlign=middle;resizable=0;points=[];rounded=1;strokeColor=#005700;fontFamily=Helvetica;fontSize=25;fontColor=#ffffff;labelBackgroundColor=none;fillColor=#008a00;gradientColor=none;shadow=1;" parent="OONytPEMxXRGxY52DsGb-52" vertex="1" connectable="0">
          <mxGeometry x="0.6092" y="-3" relative="1" as="geometry">
            <mxPoint x="5" y="80" as="offset" />
          </mxGeometry>
        </mxCell>
        <mxCell id="OONytPEMxXRGxY52DsGb-165" value="" style="edgeLabel;html=1;align=center;verticalAlign=middle;resizable=0;points=[];rounded=1;strokeColor=#005700;fontFamily=Helvetica;fontSize=25;fontColor=#ffffff;labelBackgroundColor=none;fillColor=#008a00;gradientColor=none;shadow=1;" parent="OONytPEMxXRGxY52DsGb-52" vertex="1" connectable="0">
          <mxGeometry x="0.6092" y="-3" relative="1" as="geometry">
            <mxPoint x="5" y="180" as="offset" />
          </mxGeometry>
        </mxCell>
        <mxCell id="OONytPEMxXRGxY52DsGb-53" style="edgeStyle=orthogonalEdgeStyle;rounded=0;orthogonalLoop=1;jettySize=auto;html=1;exitX=1;exitY=0.5;exitDx=0;exitDy=0;entryX=0;entryY=0.5;entryDx=0;entryDy=0;shadow=1;" parent="1" source="OONytPEMxXRGxY52DsGb-39" target="OONytPEMxXRGxY52DsGb-40" edge="1">
          <mxGeometry relative="1" as="geometry">
            <mxPoint x="490" y="2725" as="sourcePoint" />
            <mxPoint x="595" y="2725" as="targetPoint" />
          </mxGeometry>
        </mxCell>
        <mxCell id="J9MeXri5vQuQtAhNNJaB-21" value="&lt;span style=&quot;font-size: 25px; background-color: rgb(251, 251, 251);&quot;&gt;1:1&lt;/span&gt;" style="edgeLabel;html=1;align=center;verticalAlign=middle;resizable=0;points=[];shadow=1;" parent="OONytPEMxXRGxY52DsGb-53" vertex="1" connectable="0">
          <mxGeometry x="0.7033" y="5" relative="1" as="geometry">
            <mxPoint y="-15" as="offset" />
          </mxGeometry>
        </mxCell>
        <mxCell id="OONytPEMxXRGxY52DsGb-58" value="" style="edgeStyle=entityRelationEdgeStyle;rounded=0;orthogonalLoop=1;jettySize=auto;html=1;startArrow=none;endArrow=none;segment=10;curved=1;sourcePerimeterSpacing=0;targetPerimeterSpacing=0;fontFamily=Helvetica;fontSize=12;fontColor=default;entryX=0;entryY=0.5;entryDx=0;entryDy=0;exitX=1;exitY=0.5;exitDx=0;exitDy=0;shadow=1;" parent="1" source="OONytPEMxXRGxY52DsGb-38" target="aGhoT53BZnZ24auxcAZ5-15" edge="1">
          <mxGeometry relative="1" as="geometry">
            <mxPoint x="685" y="2730" as="sourcePoint" />
            <mxPoint x="895" y="2736" as="targetPoint" />
            <Array as="points">
              <mxPoint x="715" y="2703" />
            </Array>
          </mxGeometry>
        </mxCell>
        <mxCell id="OONytPEMxXRGxY52DsGb-59" value="" style="edgeStyle=entityRelationEdgeStyle;rounded=0;orthogonalLoop=1;jettySize=auto;html=1;startArrow=none;endArrow=none;segment=10;curved=1;sourcePerimeterSpacing=0;targetPerimeterSpacing=0;fontFamily=Helvetica;fontSize=12;fontColor=default;exitX=1;exitY=0.5;exitDx=0;exitDy=0;entryX=0;entryY=0.5;entryDx=0;entryDy=0;shadow=1;" parent="1" source="OONytPEMxXRGxY52DsGb-38" target="aGhoT53BZnZ24auxcAZ5-10" edge="1">
          <mxGeometry relative="1" as="geometry">
            <mxPoint x="695" y="2740" as="sourcePoint" />
            <mxPoint x="925" y="2673" as="targetPoint" />
            <Array as="points">
              <mxPoint x="705" y="2703" />
              <mxPoint x="695" y="2703" />
            </Array>
          </mxGeometry>
        </mxCell>
        <mxCell id="OONytPEMxXRGxY52DsGb-62" value="" style="edgeStyle=entityRelationEdgeStyle;rounded=0;orthogonalLoop=1;jettySize=auto;html=1;startArrow=none;endArrow=none;segment=10;curved=1;sourcePerimeterSpacing=0;targetPerimeterSpacing=0;fontFamily=Helvetica;fontSize=12;fontColor=default;entryX=0;entryY=0.5;entryDx=0;entryDy=0;exitX=1;exitY=0.5;exitDx=0;exitDy=0;shadow=1;" parent="1" source="OONytPEMxXRGxY52DsGb-34" target="OONytPEMxXRGxY52DsGb-42" edge="1">
          <mxGeometry relative="1" as="geometry">
            <mxPoint x="705" y="2505" as="sourcePoint" />
            <mxPoint x="798" y="2520" as="targetPoint" />
            <Array as="points">
              <mxPoint x="695" y="2483" />
            </Array>
          </mxGeometry>
        </mxCell>
        <mxCell id="OONytPEMxXRGxY52DsGb-63" value="&lt;div&gt;购物车数据&lt;/div&gt;&lt;div&gt;/mod/cart/detail/v4&lt;br&gt;&lt;/div&gt;" style="whiteSpace=wrap;html=1;rounded=1;arcSize=50;align=center;verticalAlign=middle;strokeWidth=1;autosize=0;spacing=4;treeFolding=1;treeMoving=1;newEdgeStyle={&quot;edgeStyle&quot;:&quot;entityRelationEdgeStyle&quot;,&quot;startArrow&quot;:&quot;none&quot;,&quot;endArrow&quot;:&quot;none&quot;,&quot;segment&quot;:10,&quot;curved&quot;:1,&quot;sourcePerimeterSpacing&quot;:0,&quot;targetPerimeterSpacing&quot;:0};strokeColor=#2D7600;fontFamily=Helvetica;fontSize=12;fontColor=#ffffff;fillColor=#60a917;" parent="1" vertex="1">
          <mxGeometry x="1401" y="2687" width="120" height="60" as="geometry" />
        </mxCell>
        <mxCell id="OONytPEMxXRGxY52DsGb-65" value="&lt;div&gt;/orchestration/mop/v3/cart/detail&lt;br&gt;&lt;/div&gt;" style="text;html=1;align=center;verticalAlign=middle;whiteSpace=wrap;rounded=0;fontFamily=Helvetica;fontSize=12;fontColor=default;autosize=1;" parent="1" vertex="1">
          <mxGeometry x="1878" y="2450" width="190" height="30" as="geometry" />
        </mxCell>
        <mxCell id="OONytPEMxXRGxY52DsGb-77" value="" style="edgeStyle=entityRelationEdgeStyle;rounded=0;orthogonalLoop=1;jettySize=auto;html=1;startArrow=none;endArrow=none;segment=10;curved=1;sourcePerimeterSpacing=0;targetPerimeterSpacing=0;fontFamily=Helvetica;fontSize=12;fontColor=#ffffff;" parent="1" source="OONytPEMxXRGxY52DsGb-66" target="OONytPEMxXRGxY52DsGb-65" edge="1">
          <mxGeometry relative="1" as="geometry" />
        </mxCell>
        <mxCell id="OONytPEMxXRGxY52DsGb-66" value="OMS" style="whiteSpace=wrap;html=1;rounded=1;arcSize=50;align=center;verticalAlign=middle;strokeWidth=1;autosize=0;spacing=4;treeFolding=1;treeMoving=1;newEdgeStyle={&quot;edgeStyle&quot;:&quot;entityRelationEdgeStyle&quot;,&quot;startArrow&quot;:&quot;none&quot;,&quot;endArrow&quot;:&quot;none&quot;,&quot;segment&quot;:10,&quot;curved&quot;:1,&quot;sourcePerimeterSpacing&quot;:0,&quot;targetPerimeterSpacing&quot;:0};strokeColor=#B09500;fontFamily=Helvetica;fontSize=12;fontColor=#000000;fillColor=#e3c800;" parent="1" vertex="1">
          <mxGeometry x="1678" y="2435" width="120" height="60" as="geometry" />
        </mxCell>
        <mxCell id="OONytPEMxXRGxY52DsGb-81" value="" style="edgeStyle=entityRelationEdgeStyle;rounded=0;orthogonalLoop=1;jettySize=auto;html=1;startArrow=none;endArrow=none;segment=10;curved=1;sourcePerimeterSpacing=0;targetPerimeterSpacing=0;fontFamily=Helvetica;fontSize=12;fontColor=#ffffff;entryX=0;entryY=0.5;entryDx=0;entryDy=0;" parent="1" source="OONytPEMxXRGxY52DsGb-70" target="aGhoT53BZnZ24auxcAZ5-49" edge="1">
          <mxGeometry relative="1" as="geometry">
            <mxPoint x="2021" y="2748" as="targetPoint" />
          </mxGeometry>
        </mxCell>
        <mxCell id="OONytPEMxXRGxY52DsGb-70" value="Provision" style="whiteSpace=wrap;html=1;rounded=1;arcSize=50;align=center;verticalAlign=middle;strokeWidth=1;autosize=0;spacing=4;treeFolding=1;treeMoving=1;newEdgeStyle={&quot;edgeStyle&quot;:&quot;entityRelationEdgeStyle&quot;,&quot;startArrow&quot;:&quot;none&quot;,&quot;endArrow&quot;:&quot;none&quot;,&quot;segment&quot;:10,&quot;curved&quot;:1,&quot;sourcePerimeterSpacing&quot;:0,&quot;targetPerimeterSpacing&quot;:0};strokeColor=#d79b00;fontFamily=Helvetica;fontSize=12;fontColor=default;fillColor=#ffe6cc;" parent="1" vertex="1">
          <mxGeometry x="1681" y="2688" width="120" height="60" as="geometry" />
        </mxCell>
        <mxCell id="OONytPEMxXRGxY52DsGb-71" value="&lt;div&gt;/star/calculateStar&lt;br&gt;&lt;/div&gt;" style="text;html=1;align=center;verticalAlign=middle;whiteSpace=wrap;rounded=0;fontFamily=Helvetica;fontSize=12;fontColor=default;autosize=1;" parent="1" vertex="1">
          <mxGeometry x="1877" y="2913" width="120" height="30" as="geometry" />
        </mxCell>
        <mxCell id="OONytPEMxXRGxY52DsGb-80" value="" style="edgeStyle=entityRelationEdgeStyle;rounded=0;orthogonalLoop=1;jettySize=auto;html=1;startArrow=none;endArrow=none;segment=10;curved=1;sourcePerimeterSpacing=0;targetPerimeterSpacing=0;fontFamily=Helvetica;fontSize=12;fontColor=#ffffff;" parent="1" source="OONytPEMxXRGxY52DsGb-74" target="OONytPEMxXRGxY52DsGb-71" edge="1">
          <mxGeometry relative="1" as="geometry" />
        </mxCell>
        <mxCell id="OONytPEMxXRGxY52DsGb-74" value="Star Engline" style="whiteSpace=wrap;html=1;rounded=1;arcSize=50;align=center;verticalAlign=middle;strokeWidth=1;autosize=0;spacing=4;treeFolding=1;treeMoving=1;newEdgeStyle={&quot;edgeStyle&quot;:&quot;entityRelationEdgeStyle&quot;,&quot;startArrow&quot;:&quot;none&quot;,&quot;endArrow&quot;:&quot;none&quot;,&quot;segment&quot;:10,&quot;curved&quot;:1,&quot;sourcePerimeterSpacing&quot;:0,&quot;targetPerimeterSpacing&quot;:0};strokeColor=#6D1F00;fontFamily=Helvetica;fontSize=12;fontColor=#ffffff;fillColor=#a0522d;" parent="1" vertex="1">
          <mxGeometry x="1677" y="2898" width="120" height="60" as="geometry" />
        </mxCell>
        <mxCell id="OONytPEMxXRGxY52DsGb-82" value="" style="edgeStyle=entityRelationEdgeStyle;rounded=0;orthogonalLoop=1;jettySize=auto;html=1;startArrow=none;endArrow=none;segment=10;curved=1;sourcePerimeterSpacing=0;targetPerimeterSpacing=0;fontFamily=Helvetica;fontSize=12;fontColor=#ffffff;entryX=0;entryY=0.5;entryDx=0;entryDy=0;exitX=1;exitY=0.5;exitDx=0;exitDy=0;" parent="1" source="OONytPEMxXRGxY52DsGb-70" target="aGhoT53BZnZ24auxcAZ5-55" edge="1">
          <mxGeometry relative="1" as="geometry">
            <mxPoint x="1811" y="2728" as="sourcePoint" />
            <mxPoint x="1971" y="2695" as="targetPoint" />
            <Array as="points">
              <mxPoint x="1811" y="2668" />
              <mxPoint x="1811" y="2718" />
              <mxPoint x="1881" y="2688" />
              <mxPoint x="1881" y="2698" />
            </Array>
          </mxGeometry>
        </mxCell>
        <mxCell id="OONytPEMxXRGxY52DsGb-83" style="edgeStyle=orthogonalEdgeStyle;rounded=0;orthogonalLoop=1;jettySize=auto;html=1;exitX=1;exitY=0.5;exitDx=0;exitDy=0;entryX=0;entryY=0.5;entryDx=0;entryDy=0;" parent="1" source="OONytPEMxXRGxY52DsGb-63" target="OONytPEMxXRGxY52DsGb-66" edge="1">
          <mxGeometry relative="1" as="geometry">
            <mxPoint x="1650" y="2615" as="sourcePoint" />
            <mxPoint x="1451" y="2705" as="targetPoint" />
          </mxGeometry>
        </mxCell>
        <mxCell id="OONytPEMxXRGxY52DsGb-166" value="1:1" style="edgeLabel;html=1;align=center;verticalAlign=middle;resizable=0;points=[];rounded=1;strokeColor=#005700;fontFamily=Helvetica;fontSize=25;fontColor=#000000;labelBackgroundColor=none;fillColor=#008a00;gradientColor=none;" parent="OONytPEMxXRGxY52DsGb-83" vertex="1" connectable="0">
          <mxGeometry x="0.6463" y="-5" relative="1" as="geometry">
            <mxPoint x="9" y="-20" as="offset" />
          </mxGeometry>
        </mxCell>
        <mxCell id="OONytPEMxXRGxY52DsGb-168" value="" style="edgeLabel;html=1;align=center;verticalAlign=middle;resizable=0;points=[];rounded=1;strokeColor=#005700;fontFamily=Helvetica;fontSize=25;fontColor=#000000;labelBackgroundColor=none;fillColor=#008a00;gradientColor=none;" parent="OONytPEMxXRGxY52DsGb-83" vertex="1" connectable="0">
          <mxGeometry x="0.6463" y="-5" relative="1" as="geometry">
            <mxPoint x="1" y="217" as="offset" />
          </mxGeometry>
        </mxCell>
        <mxCell id="OONytPEMxXRGxY52DsGb-85" style="edgeStyle=orthogonalEdgeStyle;rounded=0;orthogonalLoop=1;jettySize=auto;html=1;exitX=1;exitY=0.5;exitDx=0;exitDy=0;entryX=0;entryY=0.5;entryDx=0;entryDy=0;" parent="1" source="OONytPEMxXRGxY52DsGb-63" target="OONytPEMxXRGxY52DsGb-74" edge="1">
          <mxGeometry relative="1" as="geometry">
            <mxPoint x="1541" y="2737" as="sourcePoint" />
            <mxPoint x="1701" y="2578" as="targetPoint" />
          </mxGeometry>
        </mxCell>
        <mxCell id="J9MeXri5vQuQtAhNNJaB-24" value="&#xa;&lt;span style=&quot;color: rgb(0, 0, 0); font-family: Helvetica; font-size: 25px; font-style: normal; font-variant-ligatures: normal; font-variant-caps: normal; font-weight: 400; letter-spacing: normal; orphans: 2; text-align: center; text-indent: 0px; text-transform: none; widows: 2; word-spacing: 0px; -webkit-text-stroke-width: 0px; white-space: nowrap; text-decoration-thickness: initial; text-decoration-style: initial; text-decoration-color: initial; float: none; display: inline !important;&quot;&gt;1:1&lt;/span&gt;&#xa;&#xa;" style="edgeLabel;html=1;align=center;verticalAlign=middle;resizable=0;points=[];labelBackgroundColor=none;" parent="OONytPEMxXRGxY52DsGb-85" vertex="1" connectable="0">
          <mxGeometry x="0.8209" y="-4" relative="1" as="geometry">
            <mxPoint x="-17" y="-15" as="offset" />
          </mxGeometry>
        </mxCell>
        <mxCell id="OONytPEMxXRGxY52DsGb-86" style="edgeStyle=orthogonalEdgeStyle;rounded=0;orthogonalLoop=1;jettySize=auto;html=1;exitX=1;exitY=0.5;exitDx=0;exitDy=0;entryX=0;entryY=0.5;entryDx=0;entryDy=0;" parent="1" source="OONytPEMxXRGxY52DsGb-63" target="OONytPEMxXRGxY52DsGb-70" edge="1">
          <mxGeometry relative="1" as="geometry">
            <mxPoint x="1551" y="2747" as="sourcePoint" />
            <mxPoint x="1711" y="2588" as="targetPoint" />
          </mxGeometry>
        </mxCell>
        <mxCell id="J9MeXri5vQuQtAhNNJaB-23" value="&lt;span style=&quot;font-size: 25px; background-color: rgb(251, 251, 251);&quot;&gt;1:2&lt;/span&gt;" style="edgeLabel;html=1;align=center;verticalAlign=middle;resizable=0;points=[];" parent="OONytPEMxXRGxY52DsGb-86" vertex="1" connectable="0">
          <mxGeometry x="0.6349" y="8" relative="1" as="geometry">
            <mxPoint x="-12" y="-10" as="offset" />
          </mxGeometry>
        </mxCell>
        <mxCell id="OONytPEMxXRGxY52DsGb-180" value="&lt;font color=&quot;#000000&quot;&gt;Game Service&lt;/font&gt;" style="rounded=1;whiteSpace=wrap;html=1;fillColor=#f8cecc;strokeColor=#6D1F00;fontColor=#ffffff;" parent="1" vertex="1">
          <mxGeometry x="34" y="1931" width="120" height="60" as="geometry" />
        </mxCell>
        <mxCell id="OONytPEMxXRGxY52DsGb-181" style="edgeStyle=orthogonalEdgeStyle;rounded=0;orthogonalLoop=1;jettySize=auto;html=1;exitX=0.5;exitY=1;exitDx=0;exitDy=0;entryX=0.5;entryY=0;entryDx=0;entryDy=0;" parent="1" source="zqPxDyjhuks0Axc2uc-e-80" target="OONytPEMxXRGxY52DsGb-180" edge="1">
          <mxGeometry relative="1" as="geometry">
            <mxPoint x="-184" y="1790" as="sourcePoint" />
            <mxPoint x="343" y="1930" as="targetPoint" />
          </mxGeometry>
        </mxCell>
        <mxCell id="86y-grISofLgpCocs1Vy-9" value="获取用户地址&lt;div&gt;&lt;font color=&quot;#000000&quot;&gt;/app-bff-api/auth/customers/v2/addresses/list&lt;/font&gt;&lt;br&gt;&lt;/div&gt;" style="whiteSpace=wrap;html=1;rounded=1;arcSize=50;align=center;verticalAlign=middle;strokeWidth=1;autosize=0;spacing=4;treeFolding=1;treeMoving=1;newEdgeStyle={&quot;edgeStyle&quot;:&quot;entityRelationEdgeStyle&quot;,&quot;startArrow&quot;:&quot;none&quot;,&quot;endArrow&quot;:&quot;none&quot;,&quot;segment&quot;:10,&quot;curved&quot;:1,&quot;sourcePerimeterSpacing&quot;:0,&quot;targetPerimeterSpacing&quot;:0};strokeColor=#2D7600;fontFamily=Helvetica;fontSize=12;fontColor=#ffffff;fillColor=#134413;resizable=1;" parent="1" vertex="1">
          <mxGeometry x="-761" y="3362" width="120" height="60" as="geometry" />
        </mxCell>
        <mxCell id="J9MeXri5vQuQtAhNNJaB-3" value="" style="edgeStyle=entityRelationEdgeStyle;rounded=0;orthogonalLoop=1;jettySize=auto;html=1;startArrow=none;endArrow=none;segment=10;curved=1;sourcePerimeterSpacing=0;targetPerimeterSpacing=0;" parent="1" source="J9MeXri5vQuQtAhNNJaB-1" target="J9MeXri5vQuQtAhNNJaB-2" edge="1">
          <mxGeometry relative="1" as="geometry" />
        </mxCell>
        <mxCell id="J9MeXri5vQuQtAhNNJaB-1" value="CRM Adapter" style="whiteSpace=wrap;html=1;rounded=1;arcSize=50;align=center;verticalAlign=middle;strokeWidth=1;autosize=0;spacing=4;treeFolding=1;treeMoving=1;newEdgeStyle={&quot;edgeStyle&quot;:&quot;entityRelationEdgeStyle&quot;,&quot;startArrow&quot;:&quot;none&quot;,&quot;endArrow&quot;:&quot;none&quot;,&quot;segment&quot;:10,&quot;curved&quot;:1,&quot;sourcePerimeterSpacing&quot;:0,&quot;targetPerimeterSpacing&quot;:0};strokeColor=#6F0000;fontFamily=Helvetica;fontSize=12;fontColor=#000000;fillColor=#a20025;" parent="1" vertex="1">
          <mxGeometry x="-483" y="3362" width="120" height="60" as="geometry" />
        </mxCell>
        <mxCell id="J9MeXri5vQuQtAhNNJaB-2" value="/api/v2/customers/address/list" style="text;html=1;align=center;verticalAlign=middle;whiteSpace=wrap;rounded=0;fontFamily=Helvetica;fontSize=12;fontColor=#000000;autosize=1;" parent="1" vertex="1">
          <mxGeometry x="-220" y="3377" width="180" height="30" as="geometry" />
        </mxCell>
        <mxCell id="J9MeXri5vQuQtAhNNJaB-4" style="edgeStyle=orthogonalEdgeStyle;rounded=0;orthogonalLoop=1;jettySize=auto;html=1;entryX=0;entryY=0.5;entryDx=0;entryDy=0;exitX=1;exitY=0.5;exitDx=0;exitDy=0;" parent="1" source="86y-grISofLgpCocs1Vy-9" target="J9MeXri5vQuQtAhNNJaB-1" edge="1">
          <mxGeometry relative="1" as="geometry">
            <mxPoint x="-463.5" y="3232" as="sourcePoint" />
            <mxPoint x="-331.5" y="3452" as="targetPoint" />
          </mxGeometry>
        </mxCell>
        <mxCell id="J9MeXri5vQuQtAhNNJaB-5" value="&lt;font style=&quot;font-size: 25px;&quot;&gt;1:1&lt;/font&gt;" style="edgeLabel;html=1;align=center;verticalAlign=middle;resizable=0;points=[];" parent="J9MeXri5vQuQtAhNNJaB-4" vertex="1" connectable="0">
          <mxGeometry x="-0.3444" y="-1" relative="1" as="geometry">
            <mxPoint x="19" y="-19" as="offset" />
          </mxGeometry>
        </mxCell>
        <mxCell id="J9MeXri5vQuQtAhNNJaB-6" value="&lt;font color=&quot;#000000&quot;&gt;请求 MOD 配置&lt;/font&gt;&lt;div&gt;&lt;font color=&quot;#000000&quot;&gt;/mod/v1/config&lt;br&gt;&lt;/font&gt;&lt;/div&gt;" style="whiteSpace=wrap;html=1;rounded=1;arcSize=50;align=center;verticalAlign=middle;strokeWidth=1;autosize=0;spacing=4;treeFolding=1;treeMoving=1;newEdgeStyle={&quot;edgeStyle&quot;:&quot;entityRelationEdgeStyle&quot;,&quot;startArrow&quot;:&quot;none&quot;,&quot;endArrow&quot;:&quot;none&quot;,&quot;segment&quot;:10,&quot;curved&quot;:1,&quot;sourcePerimeterSpacing&quot;:0,&quot;targetPerimeterSpacing&quot;:0};strokeColor=#2D7600;fontFamily=Helvetica;fontSize=12;fontColor=#ffffff;fillColor=#60a917;resizable=1;" parent="1" vertex="1">
          <mxGeometry x="350" y="3350" width="120" height="60" as="geometry" />
        </mxCell>
        <mxCell id="J9MeXri5vQuQtAhNNJaB-9" value="" style="edgeStyle=entityRelationEdgeStyle;rounded=0;orthogonalLoop=1;jettySize=auto;html=1;startArrow=none;endArrow=none;segment=10;curved=1;sourcePerimeterSpacing=0;targetPerimeterSpacing=0;entryX=0;entryY=0.5;entryDx=0;entryDy=0;" parent="1" source="J9MeXri5vQuQtAhNNJaB-7" target="aGhoT53BZnZ24auxcAZ5-42" edge="1">
          <mxGeometry relative="1" as="geometry">
            <mxPoint x="702" y="3380" as="targetPoint" />
          </mxGeometry>
        </mxCell>
        <mxCell id="J9MeXri5vQuQtAhNNJaB-7" value="Provision" style="whiteSpace=wrap;html=1;rounded=1;arcSize=50;align=center;verticalAlign=middle;strokeWidth=1;autosize=0;spacing=4;treeFolding=1;treeMoving=1;newEdgeStyle={&quot;edgeStyle&quot;:&quot;entityRelationEdgeStyle&quot;,&quot;startArrow&quot;:&quot;none&quot;,&quot;endArrow&quot;:&quot;none&quot;,&quot;segment&quot;:10,&quot;curved&quot;:1,&quot;sourcePerimeterSpacing&quot;:0,&quot;targetPerimeterSpacing&quot;:0};strokeColor=#d79b00;fontFamily=Helvetica;fontSize=12;fontColor=default;fillColor=#ffe6cc;resizable=1;" parent="1" vertex="1">
          <mxGeometry x="570" y="3350" width="120" height="60" as="geometry" />
        </mxCell>
        <mxCell id="J9MeXri5vQuQtAhNNJaB-10" value="" style="edgeStyle=orthogonalEdgeStyle;rounded=0;orthogonalLoop=1;jettySize=auto;html=1;entryX=0;entryY=0.5;entryDx=0;entryDy=0;exitX=1;exitY=0.5;exitDx=0;exitDy=0;" parent="1" source="J9MeXri5vQuQtAhNNJaB-6" target="J9MeXri5vQuQtAhNNJaB-7" edge="1">
          <mxGeometry relative="1" as="geometry">
            <mxPoint x="512" y="3230" as="sourcePoint" />
            <mxPoint x="644" y="3450" as="targetPoint" />
          </mxGeometry>
        </mxCell>
        <mxCell id="J9MeXri5vQuQtAhNNJaB-11" value="&lt;font style=&quot;font-size: 25px;&quot;&gt;1:1&lt;/font&gt;" style="edgeLabel;html=1;align=center;verticalAlign=middle;resizable=0;points=[];" parent="J9MeXri5vQuQtAhNNJaB-10" vertex="1" connectable="0">
          <mxGeometry x="-0.101" relative="1" as="geometry">
            <mxPoint y="-18" as="offset" />
          </mxGeometry>
        </mxCell>
        <mxCell id="J9MeXri5vQuQtAhNNJaB-12" value="&lt;font color=&quot;#000000&quot;&gt;请求默认支付方式&lt;/font&gt;&lt;div&gt;&lt;font color=&quot;#000000&quot;&gt;/common-api/v1/payment/settings&lt;br&gt;&lt;/font&gt;&lt;/div&gt;" style="whiteSpace=wrap;html=1;rounded=1;arcSize=50;align=center;verticalAlign=middle;strokeWidth=1;autosize=0;spacing=4;treeFolding=1;treeMoving=1;newEdgeStyle={&quot;edgeStyle&quot;:&quot;entityRelationEdgeStyle&quot;,&quot;startArrow&quot;:&quot;none&quot;,&quot;endArrow&quot;:&quot;none&quot;,&quot;segment&quot;:10,&quot;curved&quot;:1,&quot;sourcePerimeterSpacing&quot;:0,&quot;targetPerimeterSpacing&quot;:0};strokeColor=#2D7600;fontFamily=Helvetica;fontSize=12;fontColor=#ffffff;fillColor=#008a00;resizable=1;shadow=1;" parent="1" vertex="1">
          <mxGeometry x="1401" y="3350" width="120" height="60" as="geometry" />
        </mxCell>
        <mxCell id="J9MeXri5vQuQtAhNNJaB-16" value="" style="edgeStyle=entityRelationEdgeStyle;rounded=0;orthogonalLoop=1;jettySize=auto;html=1;startArrow=none;endArrow=none;segment=10;curved=1;sourcePerimeterSpacing=0;targetPerimeterSpacing=0;exitX=1;exitY=0.5;exitDx=0;exitDy=0;shadow=1;" parent="1" source="J9MeXri5vQuQtAhNNJaB-25" target="J9MeXri5vQuQtAhNNJaB-15" edge="1">
          <mxGeometry relative="1" as="geometry">
            <mxPoint x="1693" y="3380" as="sourcePoint" />
          </mxGeometry>
        </mxCell>
        <mxCell id="J9MeXri5vQuQtAhNNJaB-15" value="/preference/settings/${customerId}" style="text;html=1;align=center;verticalAlign=middle;whiteSpace=wrap;rounded=0;fontFamily=Helvetica;fontSize=12;fontColor=#000000;autosize=1;shadow=1;" parent="1" vertex="1">
          <mxGeometry x="1876" y="3365" width="210" height="30" as="geometry" />
        </mxCell>
        <mxCell id="J9MeXri5vQuQtAhNNJaB-17" value="&lt;font style=&quot;font-size: 25px;&quot;&gt;1:1&lt;/font&gt;" style="edgeStyle=orthogonalEdgeStyle;rounded=0;orthogonalLoop=1;jettySize=auto;html=1;entryX=0;entryY=0.5;entryDx=0;entryDy=0;exitX=1;exitY=0.5;exitDx=0;exitDy=0;shadow=1;" parent="1" source="J9MeXri5vQuQtAhNNJaB-12" target="J9MeXri5vQuQtAhNNJaB-25" edge="1">
          <mxGeometry x="-0.1538" y="20" relative="1" as="geometry">
            <mxPoint x="1503" y="3230" as="sourcePoint" />
            <mxPoint x="1573" y="3380" as="targetPoint" />
            <mxPoint as="offset" />
          </mxGeometry>
        </mxCell>
        <mxCell id="J9MeXri5vQuQtAhNNJaB-18" value="OMS" style="whiteSpace=wrap;html=1;rounded=1;arcSize=50;align=center;verticalAlign=middle;strokeWidth=1;autosize=0;spacing=4;treeFolding=1;treeMoving=1;newEdgeStyle={&quot;edgeStyle&quot;:&quot;entityRelationEdgeStyle&quot;,&quot;startArrow&quot;:&quot;none&quot;,&quot;endArrow&quot;:&quot;none&quot;,&quot;segment&quot;:10,&quot;curved&quot;:1,&quot;sourcePerimeterSpacing&quot;:0,&quot;targetPerimeterSpacing&quot;:0};strokeColor=#B09500;fontFamily=Helvetica;fontSize=12;fontColor=#000000;fillColor=#e3c800;" parent="1" vertex="1">
          <mxGeometry x="-515" y="2530" width="120" height="60" as="geometry" />
        </mxCell>
        <mxCell id="J9MeXri5vQuQtAhNNJaB-25" value="CC" style="whiteSpace=wrap;html=1;rounded=1;arcSize=50;align=center;verticalAlign=middle;strokeWidth=1;autosize=0;spacing=4;treeFolding=1;treeMoving=1;newEdgeStyle={&quot;edgeStyle&quot;:&quot;entityRelationEdgeStyle&quot;,&quot;startArrow&quot;:&quot;none&quot;,&quot;endArrow&quot;:&quot;none&quot;,&quot;segment&quot;:10,&quot;curved&quot;:1,&quot;sourcePerimeterSpacing&quot;:0,&quot;targetPerimeterSpacing&quot;:0};strokeColor=#3700CC;fontFamily=Helvetica;fontSize=12;fontColor=#ffffff;fillColor=#6a00ff;movable=1;resizable=1;rotatable=1;deletable=1;editable=1;locked=0;connectable=1;aspect=fixed;imageAspect=0;recursiveResize=0;shadow=1;" parent="1" vertex="1">
          <mxGeometry x="1651" y="3350" width="120" height="60" as="geometry" />
        </mxCell>
        <mxCell id="J9MeXri5vQuQtAhNNJaB-26" value="&lt;font style=&quot;font-size: 18px;&quot;&gt;1:1&lt;/font&gt;" style="text;html=1;align=center;verticalAlign=middle;resizable=0;points=[];autosize=1;strokeColor=none;fillColor=none;" parent="1" vertex="1">
          <mxGeometry x="97" y="1861" width="50" height="40" as="geometry" />
        </mxCell>
        <mxCell id="J9MeXri5vQuQtAhNNJaB-27" value="APP-BFF" style="rounded=1;whiteSpace=wrap;html=1;fillColor=#134413;strokeColor=#005700;fontColor=#ffffff;" parent="1" vertex="1">
          <mxGeometry x="558" y="1720" width="120" height="60" as="geometry" />
        </mxCell>
        <mxCell id="J9MeXri5vQuQtAhNNJaB-28" value="CC" style="rounded=1;whiteSpace=wrap;html=1;fillColor=#6a00ff;strokeColor=#3700CC;fontColor=#ffffff;" parent="1" vertex="1">
          <mxGeometry x="281" y="1930" width="120" height="60" as="geometry" />
        </mxCell>
        <mxCell id="J9MeXri5vQuQtAhNNJaB-29" value="&lt;font color=&quot;#000000&quot;&gt;Game Service&lt;/font&gt;" style="rounded=1;whiteSpace=wrap;html=1;fillColor=#a20025;strokeColor=#6D1F00;fontColor=#ffffff;" parent="1" vertex="1">
          <mxGeometry x="558" y="1930" width="120" height="60" as="geometry" />
        </mxCell>
        <mxCell id="J9MeXri5vQuQtAhNNJaB-30" style="edgeStyle=orthogonalEdgeStyle;rounded=0;orthogonalLoop=1;jettySize=auto;html=1;exitX=0.5;exitY=1;exitDx=0;exitDy=0;entryX=0.5;entryY=0;entryDx=0;entryDy=0;" parent="1" source="zqPxDyjhuks0Axc2uc-e-83" target="J9MeXri5vQuQtAhNNJaB-27" edge="1">
          <mxGeometry relative="1" as="geometry">
            <mxPoint x="414" y="1530" as="sourcePoint" />
            <mxPoint x="751" y="1650" as="targetPoint" />
          </mxGeometry>
        </mxCell>
        <mxCell id="J9MeXri5vQuQtAhNNJaB-31" style="edgeStyle=orthogonalEdgeStyle;rounded=0;orthogonalLoop=1;jettySize=auto;html=1;exitX=0.5;exitY=1;exitDx=0;exitDy=0;entryX=0.5;entryY=0;entryDx=0;entryDy=0;" parent="1" source="J9MeXri5vQuQtAhNNJaB-27" target="J9MeXri5vQuQtAhNNJaB-29" edge="1">
          <mxGeometry relative="1" as="geometry">
            <mxPoint x="295" y="1790" as="sourcePoint" />
            <mxPoint x="295" y="1940" as="targetPoint" />
          </mxGeometry>
        </mxCell>
        <mxCell id="J9MeXri5vQuQtAhNNJaB-32" value="&lt;font style=&quot;font-size: 18px;&quot;&gt;1:1&lt;/font&gt;" style="text;html=1;align=center;verticalAlign=middle;resizable=0;points=[];autosize=1;strokeColor=none;fillColor=none;" parent="1" vertex="1">
          <mxGeometry x="628" y="1860" width="50" height="40" as="geometry" />
        </mxCell>
        <mxCell id="J9MeXri5vQuQtAhNNJaB-33" value="&lt;font style=&quot;font-size: 18px;&quot;&gt;1:1&lt;/font&gt;" style="text;html=1;align=center;verticalAlign=middle;resizable=0;points=[];autosize=1;strokeColor=none;fillColor=none;" parent="1" vertex="1">
          <mxGeometry x="623" y="1660" width="50" height="40" as="geometry" />
        </mxCell>
        <mxCell id="J9MeXri5vQuQtAhNNJaB-34" value="APP-BFF" style="rounded=1;whiteSpace=wrap;html=1;fillColor=#134413;strokeColor=#005700;fontColor=#ffffff;" parent="1" vertex="1">
          <mxGeometry x="2150" y="1720" width="120" height="60" as="geometry" />
        </mxCell>
        <mxCell id="J9MeXri5vQuQtAhNNJaB-35" value="我的地址" style="rounded=1;whiteSpace=wrap;html=1;fillColor=#134413;strokeColor=#005700;fontColor=#ffffff;" parent="1" vertex="1">
          <mxGeometry x="2150" y="1929" width="120" height="60" as="geometry" />
        </mxCell>
        <mxCell id="J9MeXri5vQuQtAhNNJaB-37" style="edgeStyle=orthogonalEdgeStyle;rounded=0;orthogonalLoop=1;jettySize=auto;html=1;exitX=0.5;exitY=1;exitDx=0;exitDy=0;entryX=0.5;entryY=0;entryDx=0;entryDy=0;" parent="1" source="zqPxDyjhuks0Axc2uc-e-11" target="J9MeXri5vQuQtAhNNJaB-34" edge="1">
          <mxGeometry relative="1" as="geometry">
            <mxPoint x="1818" y="1680" as="sourcePoint" />
            <mxPoint x="1997" y="1730" as="targetPoint" />
          </mxGeometry>
        </mxCell>
        <mxCell id="J9MeXri5vQuQtAhNNJaB-38" style="edgeStyle=orthogonalEdgeStyle;rounded=0;orthogonalLoop=1;jettySize=auto;html=1;exitX=0.5;exitY=1;exitDx=0;exitDy=0;entryX=0.5;entryY=0;entryDx=0;entryDy=0;" parent="1" source="J9MeXri5vQuQtAhNNJaB-34" target="J9MeXri5vQuQtAhNNJaB-35" edge="1">
          <mxGeometry relative="1" as="geometry">
            <mxPoint x="1828" y="1690" as="sourcePoint" />
            <mxPoint x="2007" y="1740" as="targetPoint" />
          </mxGeometry>
        </mxCell>
        <mxCell id="aGhoT53BZnZ24auxcAZ5-4" style="edgeStyle=orthogonalEdgeStyle;rounded=0;orthogonalLoop=1;jettySize=auto;html=1;exitX=1;exitY=0.5;exitDx=0;exitDy=0;entryX=0;entryY=0.5;entryDx=0;entryDy=0;" parent="1" source="aGhoT53BZnZ24auxcAZ5-1" target="aGhoT53BZnZ24auxcAZ5-2" edge="1">
          <mxGeometry relative="1" as="geometry" />
        </mxCell>
        <mxCell id="aGhoT53BZnZ24auxcAZ5-1" value="/app-provision-api/default/custom-configs" style="whiteSpace=wrap;html=1;" parent="1" vertex="1">
          <mxGeometry x="-336.5" y="2859" width="240" height="30" as="geometry" />
        </mxCell>
        <mxCell id="aGhoT53BZnZ24auxcAZ5-2" value="&lt;span style=&quot;color: rgb(23, 43, 77); font-family: -apple-system, BlinkMacSystemFont, &amp;quot;Segoe UI&amp;quot;, Roboto, Oxygen, Ubuntu, &amp;quot;Fira Sans&amp;quot;, &amp;quot;Droid Sans&amp;quot;, &amp;quot;Helvetica Neue&amp;quot;, sans-serif; font-size: 14px; font-weight: 700; text-align: left; background-color: rgb(255, 255, 255);&quot;&gt;Caffeine&lt;/span&gt;" style="whiteSpace=wrap;html=1;" parent="1" vertex="1">
          <mxGeometry x="19" y="2802.5" width="116.5" height="49" as="geometry" />
        </mxCell>
        <mxCell id="aGhoT53BZnZ24auxcAZ5-6" value="1:2" style="text;html=1;align=center;verticalAlign=middle;resizable=0;points=[];autosize=1;strokeColor=none;fillColor=none;" parent="1" vertex="1">
          <mxGeometry x="-40" y="2883" width="40" height="30" as="geometry" />
        </mxCell>
        <mxCell id="aGhoT53BZnZ24auxcAZ5-7" value="1:2" style="text;html=1;align=center;verticalAlign=middle;resizable=0;points=[];autosize=1;strokeColor=none;fillColor=none;" parent="1" vertex="1">
          <mxGeometry x="-40" y="2798" width="40" height="30" as="geometry" />
        </mxCell>
        <mxCell id="8peyVHAZcKNHUFyVeJ5Q-7" style="edgeStyle=orthogonalEdgeStyle;rounded=0;orthogonalLoop=1;jettySize=auto;html=1;exitX=1;exitY=0.5;exitDx=0;exitDy=0;entryX=0;entryY=0.5;entryDx=0;entryDy=0;" edge="1" parent="1" source="aGhoT53BZnZ24auxcAZ5-10" target="8peyVHAZcKNHUFyVeJ5Q-5">
          <mxGeometry relative="1" as="geometry" />
        </mxCell>
        <mxCell id="aGhoT53BZnZ24auxcAZ5-10" value="/app-provision-api/default/app-config/${config_code}" style="whiteSpace=wrap;html=1;" parent="1" vertex="1">
          <mxGeometry x="800" y="2575" width="280" height="30" as="geometry" />
        </mxCell>
        <mxCell id="8peyVHAZcKNHUFyVeJ5Q-14" style="edgeStyle=orthogonalEdgeStyle;rounded=0;orthogonalLoop=1;jettySize=auto;html=1;exitX=1;exitY=0.5;exitDx=0;exitDy=0;" edge="1" parent="1" source="aGhoT53BZnZ24auxcAZ5-12" target="8peyVHAZcKNHUFyVeJ5Q-13">
          <mxGeometry relative="1" as="geometry" />
        </mxCell>
        <mxCell id="aGhoT53BZnZ24auxcAZ5-12" value="/app-provision-api/default/double-stars-sku" style="whiteSpace=wrap;html=1;" parent="1" vertex="1">
          <mxGeometry x="800" y="2694" width="280" height="30" as="geometry" />
        </mxCell>
        <mxCell id="8peyVHAZcKNHUFyVeJ5Q-11" style="edgeStyle=orthogonalEdgeStyle;rounded=0;orthogonalLoop=1;jettySize=auto;html=1;" edge="1" parent="1" source="aGhoT53BZnZ24auxcAZ5-15" target="8peyVHAZcKNHUFyVeJ5Q-9">
          <mxGeometry relative="1" as="geometry" />
        </mxCell>
        <mxCell id="aGhoT53BZnZ24auxcAZ5-15" value="/app-provision-api/default/custom-configs" style="whiteSpace=wrap;html=1;" parent="1" vertex="1">
          <mxGeometry x="800" y="2820" width="280" height="30" as="geometry" />
        </mxCell>
        <mxCell id="aGhoT53BZnZ24auxcAZ5-22" value="1:1" style="text;html=1;align=center;verticalAlign=middle;resizable=0;points=[];autosize=1;strokeColor=none;fillColor=none;" parent="1" vertex="1">
          <mxGeometry x="1120" y="2512" width="40" height="30" as="geometry" />
        </mxCell>
        <mxCell id="aGhoT53BZnZ24auxcAZ5-23" value="1:1" style="text;html=1;align=center;verticalAlign=middle;resizable=0;points=[];autosize=1;strokeColor=none;fillColor=none;" parent="1" vertex="1">
          <mxGeometry x="1120" y="2617.5" width="40" height="30" as="geometry" />
        </mxCell>
        <mxCell id="aGhoT53BZnZ24auxcAZ5-29" value="1:2" style="text;html=1;align=center;verticalAlign=middle;resizable=0;points=[];autosize=1;strokeColor=none;fillColor=none;" parent="1" vertex="1">
          <mxGeometry x="1120" y="2677" width="40" height="30" as="geometry" />
        </mxCell>
        <mxCell id="aGhoT53BZnZ24auxcAZ5-35" value="1:2" style="text;html=1;align=center;verticalAlign=middle;resizable=0;points=[];autosize=1;strokeColor=none;fillColor=none;" parent="1" vertex="1">
          <mxGeometry x="1124" y="2767" width="40" height="30" as="geometry" />
        </mxCell>
        <mxCell id="aGhoT53BZnZ24auxcAZ5-36" value="1:2" style="text;html=1;align=center;verticalAlign=middle;resizable=0;points=[];autosize=1;strokeColor=none;fillColor=none;" parent="1" vertex="1">
          <mxGeometry x="1120" y="2852" width="40" height="30" as="geometry" />
        </mxCell>
        <mxCell id="8peyVHAZcKNHUFyVeJ5Q-18" style="edgeStyle=orthogonalEdgeStyle;rounded=0;orthogonalLoop=1;jettySize=auto;html=1;entryX=0;entryY=0.5;entryDx=0;entryDy=0;" edge="1" parent="1" source="aGhoT53BZnZ24auxcAZ5-42" target="8peyVHAZcKNHUFyVeJ5Q-15">
          <mxGeometry relative="1" as="geometry" />
        </mxCell>
        <mxCell id="aGhoT53BZnZ24auxcAZ5-42" value="/app-provision-api/default/custom-configs" style="whiteSpace=wrap;html=1;" parent="1" vertex="1">
          <mxGeometry x="785" y="3365" width="295" height="30" as="geometry" />
        </mxCell>
        <mxCell id="aGhoT53BZnZ24auxcAZ5-45" value="1:2" style="text;html=1;align=center;verticalAlign=middle;resizable=0;points=[];autosize=1;strokeColor=none;fillColor=none;" parent="1" vertex="1">
          <mxGeometry x="1120" y="3307.5" width="40" height="30" as="geometry" />
        </mxCell>
        <mxCell id="aGhoT53BZnZ24auxcAZ5-46" value="1:2" style="text;html=1;align=center;verticalAlign=middle;resizable=0;points=[];autosize=1;strokeColor=none;fillColor=none;" parent="1" vertex="1">
          <mxGeometry x="1125" y="3392" width="40" height="30" as="geometry" />
        </mxCell>
        <mxCell id="8peyVHAZcKNHUFyVeJ5Q-27" style="edgeStyle=orthogonalEdgeStyle;rounded=0;orthogonalLoop=1;jettySize=auto;html=1;exitX=1;exitY=0.5;exitDx=0;exitDy=0;entryX=0;entryY=0.5;entryDx=0;entryDy=0;" edge="1" parent="1" source="aGhoT53BZnZ24auxcAZ5-49" target="8peyVHAZcKNHUFyVeJ5Q-25">
          <mxGeometry relative="1" as="geometry" />
        </mxCell>
        <mxCell id="8peyVHAZcKNHUFyVeJ5Q-28" style="edgeStyle=orthogonalEdgeStyle;rounded=0;orthogonalLoop=1;jettySize=auto;html=1;exitX=1;exitY=0.5;exitDx=0;exitDy=0;" edge="1" parent="1" source="aGhoT53BZnZ24auxcAZ5-49" target="8peyVHAZcKNHUFyVeJ5Q-26">
          <mxGeometry relative="1" as="geometry" />
        </mxCell>
        <mxCell id="aGhoT53BZnZ24auxcAZ5-49" value="/app-provision-api/default/app-config/${config_code}" style="whiteSpace=wrap;html=1;" parent="1" vertex="1">
          <mxGeometry x="1889" y="2781.5" width="280" height="30" as="geometry" />
        </mxCell>
        <mxCell id="aGhoT53BZnZ24auxcAZ5-52" value="1:1" style="text;html=1;align=center;verticalAlign=middle;resizable=0;points=[];autosize=1;strokeColor=none;fillColor=none;" parent="1" vertex="1">
          <mxGeometry x="2211" y="2569" width="40" height="30" as="geometry" />
        </mxCell>
        <mxCell id="aGhoT53BZnZ24auxcAZ5-53" value="1:1" style="text;html=1;align=center;verticalAlign=middle;resizable=0;points=[];autosize=1;strokeColor=none;fillColor=none;" parent="1" vertex="1">
          <mxGeometry x="2209" y="2654" width="40" height="30" as="geometry" />
        </mxCell>
        <mxCell id="8peyVHAZcKNHUFyVeJ5Q-22" style="edgeStyle=orthogonalEdgeStyle;rounded=0;orthogonalLoop=1;jettySize=auto;html=1;entryX=0;entryY=0.5;entryDx=0;entryDy=0;" edge="1" parent="1" source="aGhoT53BZnZ24auxcAZ5-55" target="8peyVHAZcKNHUFyVeJ5Q-20">
          <mxGeometry relative="1" as="geometry" />
        </mxCell>
        <mxCell id="aGhoT53BZnZ24auxcAZ5-55" value="/app-provision-api/default/combos" style="whiteSpace=wrap;html=1;" parent="1" vertex="1">
          <mxGeometry x="1889" y="2617.5" width="282" height="30" as="geometry" />
        </mxCell>
        <mxCell id="8peyVHAZcKNHUFyVeJ5Q-3" value="&lt;span style=&quot;color: rgb(23, 43, 77); font-family: -apple-system, &amp;quot;system-ui&amp;quot;, &amp;quot;Segoe UI&amp;quot;, Roboto, Oxygen, Ubuntu, &amp;quot;Fira Sans&amp;quot;, &amp;quot;Droid Sans&amp;quot;, &amp;quot;Helvetica Neue&amp;quot;, sans-serif; font-size: 14px; font-weight: 700; text-align: left; background-color: rgb(255, 255, 255);&quot;&gt;Couchbase&lt;/span&gt;" style="shape=cylinder3;whiteSpace=wrap;html=1;boundedLbl=1;backgroundOutline=1;size=15;" vertex="1" parent="1">
          <mxGeometry x="19" y="2883" width="130" height="70" as="geometry" />
        </mxCell>
        <mxCell id="8peyVHAZcKNHUFyVeJ5Q-4" style="edgeStyle=orthogonalEdgeStyle;rounded=0;orthogonalLoop=1;jettySize=auto;html=1;exitX=1;exitY=0.5;exitDx=0;exitDy=0;entryX=0;entryY=0.5;entryDx=0;entryDy=0;entryPerimeter=0;" edge="1" parent="1" source="aGhoT53BZnZ24auxcAZ5-1" target="8peyVHAZcKNHUFyVeJ5Q-3">
          <mxGeometry relative="1" as="geometry" />
        </mxCell>
        <mxCell id="8peyVHAZcKNHUFyVeJ5Q-5" value="&lt;span style=&quot;color: rgb(23, 43, 77); font-family: -apple-system, BlinkMacSystemFont, &amp;quot;Segoe UI&amp;quot;, Roboto, Oxygen, Ubuntu, &amp;quot;Fira Sans&amp;quot;, &amp;quot;Droid Sans&amp;quot;, &amp;quot;Helvetica Neue&amp;quot;, sans-serif; font-size: 14px; font-weight: 700; text-align: left; background-color: rgb(255, 255, 255);&quot;&gt;Caffeine&lt;/span&gt;" style="whiteSpace=wrap;html=1;" vertex="1" parent="1">
          <mxGeometry x="1168" y="2515" width="116.5" height="49" as="geometry" />
        </mxCell>
        <mxCell id="8peyVHAZcKNHUFyVeJ5Q-6" value="&lt;span style=&quot;color: rgb(23, 43, 77); font-family: -apple-system, &amp;quot;system-ui&amp;quot;, &amp;quot;Segoe UI&amp;quot;, Roboto, Oxygen, Ubuntu, &amp;quot;Fira Sans&amp;quot;, &amp;quot;Droid Sans&amp;quot;, &amp;quot;Helvetica Neue&amp;quot;, sans-serif; font-size: 14px; font-weight: 700; text-align: left; background-color: rgb(255, 255, 255);&quot;&gt;Couchbase&lt;/span&gt;" style="shape=cylinder3;whiteSpace=wrap;html=1;boundedLbl=1;backgroundOutline=1;size=15;" vertex="1" parent="1">
          <mxGeometry x="1168" y="2588" width="130" height="70" as="geometry" />
        </mxCell>
        <mxCell id="8peyVHAZcKNHUFyVeJ5Q-8" style="edgeStyle=orthogonalEdgeStyle;rounded=0;orthogonalLoop=1;jettySize=auto;html=1;exitX=1;exitY=0.5;exitDx=0;exitDy=0;entryX=0;entryY=1;entryDx=0;entryDy=-15;entryPerimeter=0;" edge="1" parent="1" source="aGhoT53BZnZ24auxcAZ5-10" target="8peyVHAZcKNHUFyVeJ5Q-6">
          <mxGeometry relative="1" as="geometry" />
        </mxCell>
        <mxCell id="8peyVHAZcKNHUFyVeJ5Q-9" value="&lt;span style=&quot;color: rgb(23, 43, 77); font-family: -apple-system, BlinkMacSystemFont, &amp;quot;Segoe UI&amp;quot;, Roboto, Oxygen, Ubuntu, &amp;quot;Fira Sans&amp;quot;, &amp;quot;Droid Sans&amp;quot;, &amp;quot;Helvetica Neue&amp;quot;, sans-serif; font-size: 14px; font-weight: 700; text-align: left; background-color: rgb(255, 255, 255);&quot;&gt;Caffeine&lt;/span&gt;" style="whiteSpace=wrap;html=1;" vertex="1" parent="1">
          <mxGeometry x="1178.5" y="2772" width="116.5" height="49" as="geometry" />
        </mxCell>
        <mxCell id="8peyVHAZcKNHUFyVeJ5Q-10" value="&lt;span style=&quot;color: rgb(23, 43, 77); font-family: -apple-system, &amp;quot;system-ui&amp;quot;, &amp;quot;Segoe UI&amp;quot;, Roboto, Oxygen, Ubuntu, &amp;quot;Fira Sans&amp;quot;, &amp;quot;Droid Sans&amp;quot;, &amp;quot;Helvetica Neue&amp;quot;, sans-serif; font-size: 14px; font-weight: 700; text-align: left; background-color: rgb(255, 255, 255);&quot;&gt;Couchbase&lt;/span&gt;" style="shape=cylinder3;whiteSpace=wrap;html=1;boundedLbl=1;backgroundOutline=1;size=15;" vertex="1" parent="1">
          <mxGeometry x="1178.5" y="2845" width="130" height="70" as="geometry" />
        </mxCell>
        <mxCell id="8peyVHAZcKNHUFyVeJ5Q-12" style="edgeStyle=orthogonalEdgeStyle;rounded=0;orthogonalLoop=1;jettySize=auto;html=1;exitX=1;exitY=0.5;exitDx=0;exitDy=0;entryX=0;entryY=0.5;entryDx=0;entryDy=0;entryPerimeter=0;" edge="1" parent="1" source="aGhoT53BZnZ24auxcAZ5-15" target="8peyVHAZcKNHUFyVeJ5Q-10">
          <mxGeometry relative="1" as="geometry" />
        </mxCell>
        <mxCell id="8peyVHAZcKNHUFyVeJ5Q-13" value="&lt;span style=&quot;color: rgb(23, 43, 77); font-family: -apple-system, &amp;quot;system-ui&amp;quot;, &amp;quot;Segoe UI&amp;quot;, Roboto, Oxygen, Ubuntu, &amp;quot;Fira Sans&amp;quot;, &amp;quot;Droid Sans&amp;quot;, &amp;quot;Helvetica Neue&amp;quot;, sans-serif; font-size: 14px; font-weight: 700; text-align: left; background-color: rgb(255, 255, 255);&quot;&gt;Couchbase&lt;/span&gt;" style="shape=cylinder3;whiteSpace=wrap;html=1;boundedLbl=1;backgroundOutline=1;size=15;" vertex="1" parent="1">
          <mxGeometry x="1171.75" y="2674" width="130" height="70" as="geometry" />
        </mxCell>
        <mxCell id="8peyVHAZcKNHUFyVeJ5Q-15" value="&lt;span style=&quot;color: rgb(23, 43, 77); font-family: -apple-system, BlinkMacSystemFont, &amp;quot;Segoe UI&amp;quot;, Roboto, Oxygen, Ubuntu, &amp;quot;Fira Sans&amp;quot;, &amp;quot;Droid Sans&amp;quot;, &amp;quot;Helvetica Neue&amp;quot;, sans-serif; font-size: 14px; font-weight: 700; text-align: left; background-color: rgb(255, 255, 255);&quot;&gt;Caffeine&lt;/span&gt;" style="whiteSpace=wrap;html=1;" vertex="1" parent="1">
          <mxGeometry x="1178.5" y="3308.5" width="116.5" height="49" as="geometry" />
        </mxCell>
        <mxCell id="8peyVHAZcKNHUFyVeJ5Q-16" value="&lt;span style=&quot;color: rgb(23, 43, 77); font-family: -apple-system, &amp;quot;system-ui&amp;quot;, &amp;quot;Segoe UI&amp;quot;, Roboto, Oxygen, Ubuntu, &amp;quot;Fira Sans&amp;quot;, &amp;quot;Droid Sans&amp;quot;, &amp;quot;Helvetica Neue&amp;quot;, sans-serif; font-size: 14px; font-weight: 700; text-align: left; background-color: rgb(255, 255, 255);&quot;&gt;Couchbase&lt;/span&gt;" style="shape=cylinder3;whiteSpace=wrap;html=1;boundedLbl=1;backgroundOutline=1;size=15;" vertex="1" parent="1">
          <mxGeometry x="1178.5" y="3381.5" width="130" height="70" as="geometry" />
        </mxCell>
        <mxCell id="8peyVHAZcKNHUFyVeJ5Q-19" style="edgeStyle=orthogonalEdgeStyle;rounded=0;orthogonalLoop=1;jettySize=auto;html=1;exitX=1;exitY=0.5;exitDx=0;exitDy=0;entryX=0;entryY=0.5;entryDx=0;entryDy=0;entryPerimeter=0;" edge="1" parent="1" source="aGhoT53BZnZ24auxcAZ5-42" target="8peyVHAZcKNHUFyVeJ5Q-16">
          <mxGeometry relative="1" as="geometry" />
        </mxCell>
        <mxCell id="8peyVHAZcKNHUFyVeJ5Q-20" value="&lt;span style=&quot;color: rgb(23, 43, 77); font-family: -apple-system, BlinkMacSystemFont, &amp;quot;Segoe UI&amp;quot;, Roboto, Oxygen, Ubuntu, &amp;quot;Fira Sans&amp;quot;, &amp;quot;Droid Sans&amp;quot;, &amp;quot;Helvetica Neue&amp;quot;, sans-serif; font-size: 14px; font-weight: 700; text-align: left; background-color: rgb(255, 255, 255);&quot;&gt;Caffeine&lt;/span&gt;" style="whiteSpace=wrap;html=1;" vertex="1" parent="1">
          <mxGeometry x="2261" y="2569" width="116.5" height="49" as="geometry" />
        </mxCell>
        <mxCell id="8peyVHAZcKNHUFyVeJ5Q-21" value="&lt;span style=&quot;color: rgb(23, 43, 77); font-family: -apple-system, &amp;quot;system-ui&amp;quot;, &amp;quot;Segoe UI&amp;quot;, Roboto, Oxygen, Ubuntu, &amp;quot;Fira Sans&amp;quot;, &amp;quot;Droid Sans&amp;quot;, &amp;quot;Helvetica Neue&amp;quot;, sans-serif; font-size: 14px; font-weight: 700; text-align: left; background-color: rgb(255, 255, 255);&quot;&gt;Couchbase&lt;/span&gt;" style="shape=cylinder3;whiteSpace=wrap;html=1;boundedLbl=1;backgroundOutline=1;size=15;" vertex="1" parent="1">
          <mxGeometry x="2261" y="2642" width="130" height="70" as="geometry" />
        </mxCell>
        <mxCell id="8peyVHAZcKNHUFyVeJ5Q-24" style="edgeStyle=orthogonalEdgeStyle;rounded=0;orthogonalLoop=1;jettySize=auto;html=1;exitX=1;exitY=0.5;exitDx=0;exitDy=0;entryX=0;entryY=0.5;entryDx=0;entryDy=0;entryPerimeter=0;" edge="1" parent="1" source="aGhoT53BZnZ24auxcAZ5-55" target="8peyVHAZcKNHUFyVeJ5Q-21">
          <mxGeometry relative="1" as="geometry" />
        </mxCell>
        <mxCell id="8peyVHAZcKNHUFyVeJ5Q-25" value="&lt;span style=&quot;color: rgb(23, 43, 77); font-family: -apple-system, BlinkMacSystemFont, &amp;quot;Segoe UI&amp;quot;, Roboto, Oxygen, Ubuntu, &amp;quot;Fira Sans&amp;quot;, &amp;quot;Droid Sans&amp;quot;, &amp;quot;Helvetica Neue&amp;quot;, sans-serif; font-size: 14px; font-weight: 700; text-align: left; background-color: rgb(255, 255, 255);&quot;&gt;Caffeine&lt;/span&gt;" style="whiteSpace=wrap;html=1;" vertex="1" parent="1">
          <mxGeometry x="2261" y="2725" width="116.5" height="49" as="geometry" />
        </mxCell>
        <mxCell id="8peyVHAZcKNHUFyVeJ5Q-26" value="&lt;span style=&quot;color: rgb(23, 43, 77); font-family: -apple-system, &amp;quot;system-ui&amp;quot;, &amp;quot;Segoe UI&amp;quot;, Roboto, Oxygen, Ubuntu, &amp;quot;Fira Sans&amp;quot;, &amp;quot;Droid Sans&amp;quot;, &amp;quot;Helvetica Neue&amp;quot;, sans-serif; font-size: 14px; font-weight: 700; text-align: left; background-color: rgb(255, 255, 255);&quot;&gt;Couchbase&lt;/span&gt;" style="shape=cylinder3;whiteSpace=wrap;html=1;boundedLbl=1;backgroundOutline=1;size=15;" vertex="1" parent="1">
          <mxGeometry x="2261" y="2798" width="130" height="70" as="geometry" />
        </mxCell>
        <mxCell id="8peyVHAZcKNHUFyVeJ5Q-29" value="1:1" style="text;html=1;align=center;verticalAlign=middle;resizable=0;points=[];autosize=1;strokeColor=none;fillColor=none;" vertex="1" parent="1">
          <mxGeometry x="2211" y="2724" width="40" height="30" as="geometry" />
        </mxCell>
        <mxCell id="8peyVHAZcKNHUFyVeJ5Q-30" value="1:1" style="text;html=1;align=center;verticalAlign=middle;resizable=0;points=[];autosize=1;strokeColor=none;fillColor=none;" vertex="1" parent="1">
          <mxGeometry x="2210" y="2805.5" width="40" height="30" as="geometry" />
        </mxCell>
      </root>
    </mxGraphModel>
  </diagram>
</mxfile>
